<?xml version="1.0" standalone="no"?>
<!DOCTYPE svg PUBLIC "-//W3C//DTD SVG 20010904//EN"
 "http://www.w3.org/TR/2001/REC-SVG-20010904/DTD/svg10.dtd">
<svg version="1.0" xmlns="http://www.w3.org/2000/svg"
 width="500.000000pt" height="572.000000pt" viewBox="0 0 500.000000 572.000000"
 preserveAspectRatio="xMidYMid meet">

<g transform="translate(0.000000,572.000000) scale(0.100000,-0.100000)"
fill="#000000" stroke="none">
<path d="M1938 5413 c-20 -2 -41 -9 -46 -16 -4 -7 -30 -68 -57 -137 -26 -69
-59 -150 -72 -180 -14 -30 -33 -80 -43 -110 -34 -98 -48 -134 -73 -185 -14
-27 -51 -115 -82 -195 -76 -196 -86 -220 -101 -257 -8 -17 -14 -37 -14 -45 0
-7 -6 -22 -13 -33 -7 -11 -28 -56 -46 -100 -18 -44 -46 -111 -62 -149 -16 -38
-29 -73 -29 -79 0 -5 -13 -39 -30 -74 -16 -34 -30 -69 -30 -76 0 -7 -4 -17 -8
-23 -5 -5 -15 -29 -22 -54 -8 -25 -20 -54 -27 -66 -7 -11 -21 -45 -32 -75 -10
-31 -23 -64 -29 -75 -5 -10 -18 -39 -27 -64 -9 -25 -25 -63 -35 -85 -11 -22
-36 -85 -56 -140 -20 -55 -50 -126 -66 -157 -15 -32 -28 -63 -28 -70 0 -7 -27
-78 -61 -158 -33 -80 -67 -163 -76 -185 -8 -22 -27 -67 -43 -100 -15 -33 -31
-75 -35 -94 -4 -19 -20 -62 -35 -95 -14 -34 -35 -81 -45 -106 -10 -25 -26 -63
-36 -86 -11 -22 -19 -46 -19 -53 0 -7 -11 -32 -25 -57 -14 -25 -25 -50 -25
-57 0 -6 -10 -36 -21 -67 -12 -30 -28 -73 -36 -95 -8 -22 -21 -53 -28 -70 -7
-16 -23 -52 -35 -80 -36 -84 -52 -119 -66 -147 -8 -14 -14 -33 -14 -41 0 -8
-13 -43 -29 -78 -56 -124 -112 -280 -109 -302 3 -22 6 -22 166 -25 l162 -2 19
42 c58 132 83 191 111 263 18 44 35 85 39 90 7 12 25 61 50 135 11 30 41 107
69 170 27 63 59 142 72 175 39 104 42 109 56 139 9 16 29 66 45 110 17 45 48
122 71 171 22 50 44 104 48 120 13 48 38 101 55 115 13 11 128 12 653 6 350
-4 700 -9 777 -11 77 -2 502 -8 945 -14 443 -6 868 -12 945 -13 l140 -3 -3 40
c-2 38 -13 70 -53 161 -9 22 -25 65 -33 95 -9 30 -20 60 -24 67 -7 9 -125 15
-513 23 -277 6 -610 14 -739 17 l-234 7 -30 78 c-16 43 -26 80 -23 83 9 9 609
5 967 -6 444 -14 479 -13 487 6 3 9 -5 49 -19 88 -14 39 -47 129 -72 199 -25
71 -48 132 -51 137 -2 4 -172 10 -377 14 -205 3 -506 8 -668 11 -162 3 -328 8
-368 11 l-73 6 -25 55 c-32 73 -31 101 1 109 14 3 224 2 467 -4 244 -5 561
-10 706 -11 l262 -2 0 25 c0 14 -4 28 -10 31 -5 3 -10 19 -10 34 0 15 -4 31
-9 36 -10 10 -59 139 -87 227 -8 25 -21 51 -29 58 -9 7 -197 14 -612 21 -329
6 -659 13 -733 17 l-135 7 -27 55 c-34 69 -35 98 -5 108 21 7 188 5 1055 -13
341 -7 382 -6 382 7 0 29 -48 177 -73 223 -5 11 -14 33 -18 50 -13 51 -35 105
-48 118 -9 9 -188 15 -719 22 -588 9 -712 13 -736 25 -22 11 -34 29 -48 70
-26 77 -26 82 2 90 14 4 176 4 360 -1 184 -4 498 -10 698 -14 410 -7 387 -12
359 73 -21 63 -65 182 -76 207 -5 11 -19 48 -31 82 -12 34 -29 65 -38 68 -23
9 -483 22 -1072 30 -267 3 -498 7 -515 9 -16 1 -47 1 -67 -1z m105 -695 c7
-18 28 -78 47 -133 18 -55 39 -114 47 -132 7 -17 13 -37 13 -44 0 -8 11 -36
24 -64 13 -27 37 -90 54 -140 17 -49 47 -135 67 -190 20 -55 39 -109 42 -120
3 -11 16 -44 29 -72 13 -29 27 -65 30 -80 4 -14 13 -38 20 -52 8 -14 14 -32
14 -40 0 -25 52 -170 81 -223 5 -10 9 -27 9 -38 0 -11 6 -31 14 -43 8 -12 17
-38 21 -57 7 -38 12 -52 44 -123 11 -26 21 -60 21 -76 0 -16 7 -34 15 -41 18
-15 20 -51 3 -68 -9 -9 -145 -10 -547 -7 -652 6 -768 10 -787 26 -20 17 -13
43 52 195 30 70 54 135 54 145 0 9 7 22 15 29 8 7 15 22 15 34 0 12 7 31 15
42 8 10 15 25 15 32 0 7 13 40 29 75 16 34 46 103 66 152 21 50 41 94 46 100
5 5 9 17 9 27 0 9 13 45 29 80 26 57 41 95 88 223 8 22 21 54 27 70 7 17 21
56 31 88 10 31 24 62 32 68 7 6 13 21 13 33 0 12 6 30 13 41 8 11 24 52 36 90
22 66 84 204 98 219 17 16 44 4 56 -26z"/>
<path d="M2883 2394 c-5 -15 11 -67 110 -354 16 -47 30 -68 47 -77 17 -7 175
-13 505 -17 466 -6 624 -9 1058 -22 145 -4 212 -2 221 5 11 9 6 32 -25 124
-37 111 -86 246 -107 300 l-12 27 -152 1 c-84 1 -166 2 -183 3 -131 9 -462 17
-918 22 -500 5 -538 4 -544 -12z"/>
<path d="M521 538 c-40 -134 -76 -249 -78 -255 -3 -10 12 -13 56 -13 l60 0 10
38 c5 20 13 49 17 65 6 26 8 27 80 27 l73 0 19 -62 20 -63 62 -3 c48 -2 61 0
58 10 -2 7 -38 122 -78 256 l-74 242 -76 0 -75 0 -74 -242z m173 52 c14 -52
26 -98 26 -102 0 -9 -94 -11 -101 -3 -3 2 6 49 20 104 14 55 26 99 27 98 1 -1
14 -45 28 -97z"/>
<path d="M986 604 c46 -97 84 -184 84 -193 0 -27 -36 -54 -70 -54 -33 0 -45
-22 -38 -68 7 -51 136 -27 182 34 37 49 72 125 136 294 33 86 60 158 60 159 0
2 -27 4 -59 4 l-59 0 -20 -67 c-11 -38 -28 -95 -37 -128 -10 -33 -20 -63 -24
-68 -4 -4 -15 17 -26 45 -10 29 -34 90 -53 136 l-34 82 -63 0 -64 0 85 -176z"/>
<path d="M1420 676 c0 -123 -12 -191 -45 -263 -17 -39 -29 -53 -44 -53 -20 0
-21 -6 -21 -110 l0 -110 45 0 45 0 0 65 0 65 155 0 155 0 0 -65 0 -65 45 0 45
0 0 110 0 110 -25 0 -25 0 0 210 0 210 -165 0 -165 0 0 -104z m215 -151 l0
-160 -82 -3 c-46 -2 -83 -2 -83 0 0 2 10 28 21 58 14 37 23 86 26 150 2 52 6
101 9 108 3 9 20 12 56 10 l53 -3 0 -160z"/>
<path d="M1870 525 l0 -255 65 0 64 0 43 73 c23 39 66 119 95 176 l53 104 0
-177 0 -176 50 0 50 0 0 255 0 255 -58 0 -59 0 -86 -157 c-47 -87 -92 -174
-100 -193 -14 -33 -15 -23 -16 158 l-1 192 -50 0 -50 0 0 -255z"/>
<path d="M2350 735 l0 -44 68 -3 67 -3 3 -207 2 -208 55 0 55 0 0 210 0 210
70 0 70 0 0 45 0 45 -195 0 -195 0 0 -45z"/>
<path d="M3025 763 c-11 -2 -33 -9 -49 -15 -25 -10 -28 -15 -22 -46 7 -46 9
-47 55 -34 52 16 82 15 109 -4 52 -36 8 -94 -73 -94 -34 0 -35 -1 -35 -39 l0
-38 50 -5 c58 -6 90 -30 90 -67 -1 -64 -68 -88 -158 -57 l-41 15 -11 -37 c-13
-50 -14 -48 23 -63 50 -22 174 -18 222 6 107 54 113 173 11 235 -27 17 -27 18
-7 25 62 19 82 118 35 174 -36 43 -120 62 -199 44z"/>
<path d="M3464 756 c-45 -20 -92 -82 -105 -141 -18 -82 -9 -202 21 -260 64
-125 235 -125 300 0 22 45 25 61 25 165 0 108 -2 118 -28 163 -45 76 -135 107
-213 73z m113 -103 c14 -22 18 -48 18 -133 0 -131 -13 -165 -65 -165 -47 0
-63 35 -68 146 -3 71 0 95 16 133 18 40 25 46 51 46 22 0 35 -7 48 -27z"/>
<path d="M3874 756 c-45 -20 -92 -82 -105 -141 -18 -82 -9 -202 21 -260 64
-125 235 -125 300 0 22 45 25 61 25 165 0 108 -2 118 -28 163 -45 76 -135 107
-213 73z m113 -103 c14 -22 18 -48 18 -133 0 -131 -13 -165 -65 -165 -47 0
-63 35 -68 146 -3 71 0 95 16 133 18 40 25 46 51 46 22 0 35 -7 48 -27z"/>
<path d="M4294 756 c-45 -20 -92 -82 -105 -141 -18 -82 -9 -202 21 -260 64
-125 235 -125 300 0 22 45 25 61 25 165 0 108 -2 118 -28 163 -45 76 -135 107
-213 73z m113 -103 c14 -22 18 -48 18 -133 0 -131 -13 -165 -65 -165 -47 0
-63 35 -68 146 -3 71 0 95 16 133 18 40 25 46 51 46 22 0 35 -7 48 -27z"/>
<path d="M143 528 l-42 -72 21 -36 c69 -113 66 -110 104 -110 42 0 42 3 -11
85 -19 31 -35 58 -35 62 0 3 18 34 40 69 22 35 40 66 40 69 0 3 -17 5 -37 5
-36 0 -40 -3 -80 -72z"/>
<path d="M290 530 c-23 -39 -40 -74 -38 -79 2 -4 21 -37 43 -74 37 -64 41 -67
77 -67 44 0 44 -2 -18 96 l-33 51 23 34 c12 19 32 51 45 72 l23 37 -40 0 c-39
0 -41 -2 -82 -70z"/>
<path d="M4635 528 l44 -72 -21 -35 c-12 -20 -29 -47 -38 -61 -33 -50 -33 -50
8 -50 38 0 41 2 81 69 22 38 41 73 41 77 0 4 -18 38 -40 76 -40 66 -42 68 -80
68 l-40 0 45 -72z"/>
<path d="M4740 595 c0 -3 18 -34 40 -69 22 -35 40 -66 40 -70 0 -3 -18 -35
-40 -70 -22 -35 -40 -66 -40 -70 0 -4 17 -6 37 -4 33 3 40 9 79 73 47 77 48
68 -12 163 -30 47 -37 52 -69 52 -19 0 -35 -2 -35 -5z"/>
</g>
</svg>
