<?xml version="1.0" standalone="no"?>
<!DOCTYPE svg PUBLIC "-//W3C//DTD SVG 20010904//EN"
 "http://www.w3.org/TR/2001/REC-SVG-20010904/DTD/svg10.dtd">
<svg version="1.0" xmlns="http://www.w3.org/2000/svg"
 width="50.000000pt" height="50.000000pt" viewBox="0 0 50.000000 50.000000"
 preserveAspectRatio="xMidYMid meet">

<g transform="translate(0.000000,50.000000) scale(0.100000,-0.100000)"
fill="#000000" stroke="none">
<path d="M91 446 c-43 -24 -50 -52 -51 -193 0 -204 8 -213 209 -213 202 0 211
9 211 210 0 144 -9 177 -55 198 -37 17 -282 15 -314 -2z m324 -31 c24 -23 25
-29 25 -165 0 -193 3 -190 -190 -190 -136 0 -142 1 -165 25 -24 23 -25 29 -25
165 0 136 1 142 25 165 23 24 29 25 165 25 136 0 142 -1 165 -25z"/>
<path d="M137 372 c-10 -10 -17 -28 -17 -41 0 -115 192 -261 253 -193 24 26
21 47 -10 72 -21 16 -35 20 -63 15 -29 -5 -40 -2 -58 18 -19 20 -22 32 -17 59
5 26 1 40 -15 61 -25 31 -50 35 -73 9z m60 -21 c7 -11 10 -34 6 -55 -5 -30 -1
-40 26 -67 28 -27 37 -31 69 -26 47 8 82 -14 65 -41 -39 -61 -199 46 -219 147
-10 51 29 81 53 42z"/>
</g>
</svg>
