<?xml version="1.0" standalone="no"?>
<!DOCTYPE svg PUBLIC "-//W3C//DTD SVG 20010904//EN"
 "http://www.w3.org/TR/2001/REC-SVG-20010904/DTD/svg10.dtd">
<svg version="1.0" xmlns="http://www.w3.org/2000/svg"
 width="60.000000pt" height="60.000000pt" viewBox="0 0 60.000000 60.000000"
 preserveAspectRatio="xMidYMid meet">

<g transform="translate(0.000000,60.000000) scale(0.100000,-0.100000)"
fill="#000000" stroke="none">
<path d="M215 582 c-133 -62 -162 -219 -73 -399 35 -72 131 -183 158 -183 48
0 175 185 199 290 27 115 -6 218 -85 273 -55 38 -141 46 -199 19z m160 -21
c159 -72 149 -310 -20 -488 l-55 -58 -55 58 c-60 63 -94 122 -119 206 -39 131
-2 235 99 282 51 24 99 24 150 0z"/>
<path d="M235 536 c-101 -44 -125 -178 -46 -257 65 -65 157 -65 222 0 124 124
-15 327 -176 257z m136 -29 c39 -26 69 -79 69 -122 0 -63 -72 -135 -135 -135
-73 0 -145 70 -145 140 0 71 72 140 146 140 17 0 46 -10 65 -23z"/>
</g>
</svg>
