<?xml version="1.0" standalone="no"?>
<!DOCTYPE svg PUBLIC "-//W3C//DTD SVG 20010904//EN"
 "http://www.w3.org/TR/2001/REC-SVG-20010904/DTD/svg10.dtd">
<svg version="1.0" xmlns="http://www.w3.org/2000/svg"
 width="50.000000pt" height="50.000000pt" viewBox="0 0 50.000000 50.000000"
 preserveAspectRatio="xMidYMid meet">

<g transform="translate(0.000000,50.000000) scale(0.100000,-0.100000)"
fill="#000000" stroke="none">
<path d="M91 446 c-43 -24 -50 -52 -51 -193 0 -204 8 -213 209 -213 202 0 211
9 211 210 0 144 -9 177 -55 198 -37 17 -282 15 -314 -2z m115 -91 c14 -21 14
-30 4 -56 -24 -58 31 -113 89 -89 26 10 35 10 56 -4 28 -19 31 -34 11 -61 -18
-25 -78 -15 -131 23 -80 56 -131 168 -90 198 27 20 42 17 61 -11z"/>
</g>
</svg>
