<?xml version="1.0" standalone="no"?>
<!DOCTYPE svg PUBLIC "-//W3C//DTD SVG 20010904//EN"
 "http://www.w3.org/TR/2001/REC-SVG-20010904/DTD/svg10.dtd">
<svg version="1.0" xmlns="http://www.w3.org/2000/svg"
 width="50.000000pt" height="50.000000pt" viewBox="0 0 50.000000 50.000000"
 preserveAspectRatio="xMidYMid meet">

<g transform="translate(0.000000,50.000000) scale(0.100000,-0.100000)"
fill="#000000" stroke="none">
<path d="M103 481 c-4 -14 -15 -21 -42 -23 -35 -3 -36 -4 -39 -45 l-3 -43 231
0 231 0 -3 43 c-3 41 -4 42 -39 45 -27 2 -38 9 -42 23 -7 26 -47 25 -54 -1 -5
-18 -14 -20 -93 -20 -79 0 -88 2 -93 20 -7 26 -47 27 -54 1z m37 -31 c0 -16
-4 -30 -10 -30 -5 0 -10 14 -10 30 0 17 5 30 10 30 6 0 10 -13 10 -30z m240 0
c0 -16 -4 -30 -10 -30 -5 0 -10 14 -10 30 0 17 5 30 10 30 6 0 10 -13 10 -30z"/>
<path d="M22 188 l3 -163 225 0 225 0 3 163 2 162 -230 0 -230 0 2 -162z m186
20 c-3 -70 -21 -85 -26 -23 -2 23 -10 44 -19 49 -13 7 -11 10 8 21 38 21 40
18 37 -47z m126 39 c9 -15 5 -23 -21 -47 -18 -17 -33 -32 -33 -35 0 -3 14 -5
31 -5 17 0 28 -4 24 -10 -8 -13 -72 -13 -80 0 -3 5 10 26 30 46 30 30 34 38
23 51 -11 13 -14 13 -29 -6 -20 -24 -33 -17 -18 11 13 24 57 21 73 -5z"/>
</g>
</svg>
