<?xml version="1.0" standalone="no"?>
<!DOCTYPE svg PUBLIC "-//W3C//DTD SVG 20010904//EN"
 "http://www.w3.org/TR/2001/REC-SVG-20010904/DTD/svg10.dtd">
<svg version="1.0" xmlns="http://www.w3.org/2000/svg"
 width="64.000000pt" height="64.000000pt" viewBox="0 0 64.000000 64.000000"
 preserveAspectRatio="xMidYMid meet">

<g transform="translate(0.000000,64.000000) scale(0.100000,-0.100000)"
fill="#000000" stroke="none">
<path d="M119 592 l-24 -20 0 -252 0 -252 24 -19 c21 -17 41 -19 201 -19 241
0 224 -17 228 222 5 232 -1 280 -38 321 l-28 32 -169 3 c-156 3 -171 2 -194
-16z m381 -52 c15 -28 13 -32 -17 -28 -24 2 -29 8 -31 36 -3 31 -2 33 17 22
11 -6 25 -19 31 -30z m-119 -125 c39 -21 69 -71 69 -116 0 -43 -20 -63 -56
-56 -14 2 -38 0 -54 -6 -22 -9 -33 -7 -55 7 -22 14 -26 23 -23 54 2 28 10 40
31 52 24 13 30 13 54 0 16 -9 30 -28 35 -48 12 -45 38 -43 38 3 0 60 -64 106
-126 91 -46 -12 -74 -50 -74 -101 0 -53 30 -91 80 -101 16 -4 30 -13 30 -20 0
-35 -92 2 -120 48 -71 116 52 254 171 193z"/>
<path d="M294 316 c-11 -29 0 -51 26 -51 21 0 25 5 25 30 0 24 -5 31 -23 33
-13 2 -24 -3 -28 -12z"/>
</g>
</svg>
