<?xml version="1.0" standalone="no"?>
<!DOCTYPE svg PUBLIC "-//W3C//DTD SVG 20010904//EN"
 "http://www.w3.org/TR/2001/REC-SVG-20010904/DTD/svg10.dtd">
<svg version="1.0" xmlns="http://www.w3.org/2000/svg"
 width="64.000000pt" height="64.000000pt" viewBox="0 0 64.000000 64.000000"
 preserveAspectRatio="xMidYMid meet">

<g transform="translate(0.000000,64.000000) scale(0.100000,-0.100000)"
fill="#000000" stroke="none">
<path d="M173 524 c-95 -65 -140 -101 -136 -110 3 -8 9 -14 15 -14 5 0 66 38
135 85 69 47 130 85 135 85 4 0 64 -38 132 -85 68 -47 128 -85 134 -85 5 0 12
7 15 15 4 10 -34 41 -128 105 -74 50 -140 93 -147 95 -8 3 -77 -38 -155 -91z"/>
<path d="M193 472 l-112 -77 -1 -49 c0 -35 6 -56 19 -70 21 -24 51 -108 51
-143 0 -13 -12 -35 -26 -50 -31 -31 -46 -22 -16 10 12 13 22 34 21 48 0 38
-33 114 -49 114 -16 0 -49 -76 -49 -116 -1 -14 8 -34 19 -44 11 -10 20 -29 20
-42 0 -18 -5 -23 -25 -23 -14 0 -25 -4 -25 -10 0 -6 107 -10 300 -10 193 0
300 4 300 10 0 6 -13 10 -30 10 l-30 0 0 183 -1 182 -114 78 c-63 42 -120 77
-127 76 -7 0 -63 -35 -125 -77z m117 -67 c0 -20 -5 -25 -25 -25 -18 0 -25 5
-25 18 0 24 8 32 32 32 13 0 18 -7 18 -25z m68 -2 c3 -19 -1 -23 -22 -23 -21
0 -26 5 -26 26 0 21 4 25 23 22 14 -2 23 -11 25 -25z m-68 -69 c0 -21 -4 -25
-22 -22 -15 2 -24 11 -26 26 -3 18 1 22 22 22 21 0 26 -5 26 -26z m68 4 c-2
-15 -11 -24 -25 -26 -19 -3 -23 1 -23 22 0 21 5 26 26 26 21 0 25 -4 22 -22z
m-98 -213 l0 -95 -55 0 -55 0 0 95 0 95 55 0 55 0 0 -95z m98 27 c5 -30 40
-29 44 1 2 12 10 22 18 22 8 0 16 -10 18 -22 2 -15 10 -23 22 -23 12 0 20 8
22 23 2 12 10 22 18 22 12 0 16 -16 18 -72 3 -68 1 -73 -18 -73 -16 0 -20 6
-20 30 0 23 -4 30 -20 30 -16 0 -20 -7 -20 -30 0 -23 -4 -30 -20 -30 -16 0
-20 7 -20 30 0 23 -4 30 -20 30 -16 0 -20 -7 -20 -30 0 -23 -4 -30 -20 -30
-18 0 -20 7 -20 68 0 38 3 72 7 76 12 11 28 0 31 -22z"/>
<path d="M230 120 c0 -5 5 -10 10 -10 6 0 10 5 10 10 0 6 -4 10 -10 10 -5 0
-10 -4 -10 -10z"/>
</g>
</svg>
